# xmcd
#
# Track frame offsets: 
#        150
#        15875
#        37484
#        56487
#        74534
#        86750
#        104003
#        119094
#        136602
#        153053
#
# Disc length: 2236 seconds
#
# Revision: 0
# Processed by: cddbd v1.5.2PL0 Copyright (c) Steve Scherf et al.
# Submitted via: ExactAudioCopy v1.0b3
#
DISCID=8608ba0a
DTITLE=Fast Eddie Clarke - Make My Day: Back To Blues
DYEAR=2014
DGENRE=Blues-Rock
TTITLE0=Nothing Left
TTITLE1=Mountains to the Sea
TTITLE2=Make My Day
TTITLE3=Heavy Load
TTITLE4=Fast Train
TTITLE5=Walking Too Slow
TTITLE6=Haven't Got the Time
TTITLE7=One Way
TTITLE8=My New Life
TTITLE9=Ethereal Blue
EXTD=
EXTT0=
EXTT1=
EXTT2=
EXTT3=
EXTT4=
EXTT5=
EXTT6=
EXTT7=
EXTT8=
EXTT9=
PLAYORDER=
